<svg version="1.1" id="Layer_1" xmlns="http://www.w3.org/2000/svg" xmlns:xlink="http://www.w3.org/1999/xlink" x="0px" y="0px"
	 width="100%" viewBox="0 0 528 528" enable-background="new 0 0 528 528" xml:space="preserve">
<path fill="#000000" opacity="1.000000" stroke="none" 
	d="
M199.760696,255.204788 
	C201.509155,238.322220 209.221909,225.148193 221.718933,214.649048 
	C224.750839,212.101837 228.174286,211.779709 231.140442,214.790710 
	C234.277771,217.975433 233.889725,221.494492 230.986862,224.570129 
	C227.210510,228.571213 223.567795,232.587402 220.777344,237.414185 
	C212.633453,251.501068 212.541931,265.814911 218.998672,280.449371 
	C219.603180,281.819550 220.263901,283.164795 220.878006,284.530853 
	C222.541443,288.231049 222.088303,291.622070 218.361237,293.523773 
	C214.696457,295.393677 211.055161,294.717255 208.844528,290.895355 
	C203.617172,281.857849 200.092850,272.242401 199.748276,261.668579 
	C199.683228,259.672791 199.754135,257.672577 199.760696,255.204788 
z"/>
<path fill="#000000" opacity="1.000000" stroke="none" 
	d="
M292.962433,275.278656 
	C289.002258,274.300293 285.393555,273.599670 281.972839,272.374359 
	C278.082703,270.980957 275.789612,268.056183 277.206360,263.823914 
	C278.601288,259.656830 282.066071,258.531342 286.107330,259.718903 
	C294.552216,262.200470 303.131531,262.835114 311.703247,261.040466 
	C324.390839,258.384125 333.883118,250.893234 341.207764,240.410080 
	C342.246185,238.923828 343.301361,237.332642 344.700409,236.240417 
	C347.233978,234.262451 350.092438,234.480453 352.525452,236.455063 
	C355.572510,238.928009 355.779694,242.126968 353.907135,245.414185 
	C345.366302,260.407867 333.171661,270.847900 316.164398,274.950684 
	C308.662262,276.760468 301.014130,276.904572 292.962433,275.278656 
z"/>
<path fill="#000000" opacity="1.000000" stroke="none" 
	d="
M203.441345,202.432053 
	C199.650681,205.784882 197.122711,209.696625 194.407181,213.480438 
	C191.491455,217.543167 187.894623,218.411346 184.614380,216.163162 
	C181.369034,213.938873 180.872177,210.184631 183.265778,205.972641 
	C197.506577,180.913223 226.320679,169.947708 253.091049,179.419815 
	C256.488220,180.621811 259.797821,182.190918 259.937500,186.382751 
	C260.042267,189.526901 257.914764,191.522018 255.174179,192.794144 
	C252.791672,193.900085 250.587173,192.640884 248.394699,192.076859 
	C231.745667,187.793991 216.827560,191.003601 203.441345,202.432053 
z"/>
<path fill="#000000" opacity="1.000000" stroke="none" 
	d="
M258.469727,144.115524 
	C282.176819,150.659775 295.790283,166.134689 301.054413,189.406555 
	C301.200958,190.054321 301.339508,190.705505 301.442444,191.361282 
	C302.101349,195.559097 300.622864,198.636642 296.458496,199.896774 
	C293.052917,200.927277 289.878143,198.446167 288.706757,194.029724 
	C286.680298,186.389755 283.463776,179.383499 278.482056,173.165009 
	C269.053925,161.396194 256.079254,157.032104 241.806793,155.492294 
	C237.369156,155.013535 234.803787,152.962173 235.065048,148.604126 
	C235.332596,144.140869 238.472748,142.578049 242.720398,142.603012 
	C247.885117,142.633347 253.004990,142.962326 258.469727,144.115524 
z"/>
<path fill="#000000" opacity="1.000000" stroke="none" 
	d="
M314.567993,237.606674 
	C310.855835,240.334900 307.658966,239.946991 305.109985,236.647186 
	C302.432922,233.181625 303.816437,230.084503 306.594452,227.363495 
	C316.521027,217.640579 322.450836,206.035034 322.585693,191.975418 
	C322.653259,184.927994 320.703339,178.180618 317.800140,171.747269 
	C317.184174,170.382233 316.497375,169.049072 315.884277,167.682800 
	C314.199707,163.928864 314.826477,160.675797 318.603180,158.781128 
	C322.280090,156.936523 325.605286,158.115463 327.655487,161.559265 
	C339.314728,181.144089 340.624084,203.606155 327.486755,223.334061 
	C323.980377,228.599411 319.987152,233.537842 314.567993,237.606674 
z"/>
<path fill="#000000" opacity="1.000000" stroke="none" 
	d="
M281.484802,294.622498 
	C286.146790,295.360748 290.385254,296.270203 294.670471,296.645966 
	C298.858826,297.013214 301.215515,298.909943 301.349487,303.117371 
	C301.494232,307.664917 298.763062,309.870667 294.584442,310.129486 
	C287.177917,310.588257 279.959961,309.124878 273.038055,306.689606 
	C252.963638,299.627014 241.314896,284.970276 236.094269,264.760315 
	C235.684174,263.172760 235.714325,261.462921 235.615158,259.805420 
	C235.400635,256.220062 236.601242,253.457138 240.485138,252.887024 
	C244.608231,252.281799 247.230209,254.311783 248.178375,258.286285 
	C250.142639,266.520020 253.742691,273.923065 259.130981,280.443268 
	C264.942627,287.475800 272.508423,291.807861 281.484802,294.622498 
z"/>
<path fill="#000000" opacity="1.000000" stroke="none" 
	d="
M165.094818,366.728821 
	C164.992798,369.297333 164.951141,371.462830 164.884293,373.627533 
	C164.776016,377.134613 162.443573,377.367188 159.684402,377.369293 
	C156.550949,377.371674 156.295303,375.607178 156.356018,373.122681 
	C156.481750,367.978363 156.393921,362.828827 156.393921,356.804596 
	C162.753601,358.105469 168.600449,353.795044 174.506332,357.540314 
	C176.173157,358.597351 177.314346,357.225830 178.632324,356.693573 
	C184.322906,354.395477 188.735336,356.930206 189.211212,363.036102 
	C189.495209,366.680176 189.224915,370.364532 189.301514,374.028687 
	C189.358490,376.754242 187.831619,377.367340 185.485352,377.356384 
	C183.089066,377.345154 181.086807,377.016113 181.009659,374.016846 
	C180.949692,371.685272 180.973190,369.350403 180.860977,367.021759 
	C180.804138,365.842407 180.556213,364.525665 178.987457,364.582184 
	C177.425247,364.638519 177.311234,365.977264 177.262604,367.151276 
	C177.186768,368.981750 177.118637,370.820160 177.203949,372.647888 
	C177.337875,375.517212 176.804001,377.396820 173.205490,377.419739 
	C169.575348,377.442810 168.512024,375.831512 168.696732,372.560913 
	C168.809082,370.571594 168.990707,368.477631 168.511948,366.590271 
	C167.874557,364.077423 166.495056,363.566437 165.094818,366.728821 
z"/>
<path fill="#000000" opacity="1.000000" stroke="none" 
	d="
M324.492981,374.675598 
	C322.924805,378.018524 318.135986,378.331879 315.981873,375.629913 
	C312.166779,370.844543 307.213989,370.885956 303.315643,375.698212 
	C300.941254,378.629211 297.923737,377.030792 295.242096,377.067230 
	C294.095917,375.284821 294.939240,373.933594 295.446442,372.572968 
	C298.232483,365.098572 301.170349,357.676880 303.765839,350.137146 
	C304.907471,346.820770 306.997498,345.964325 310.174042,345.958099 
	C313.361481,345.951874 314.916199,347.385956 315.903687,350.324066 
	C318.602814,358.354828 321.545990,366.303558 324.492981,374.675598 
M310.628784,358.789856 
	C310.532104,358.659515 310.457947,358.497589 310.332245,358.407898 
	C310.212372,358.322418 309.959961,358.226501 309.900299,358.281403 
	C308.104614,359.932861 307.872192,362.037170 307.915436,364.908234 
	C312.749725,364.614014 311.593933,361.882507 310.628784,358.789856 
z"/>
<path fill="#000000" opacity="1.000000" stroke="none" 
	d="
M195.285400,372.597198 
	C195.399170,367.525848 195.542343,362.873810 195.717575,358.222961 
	C195.728760,357.925964 195.988434,357.638336 196.233963,357.140656 
	C200.359863,356.685577 204.598495,355.885162 208.846603,355.831085 
	C214.573822,355.758148 219.472397,361.913971 218.906799,367.894470 
	C218.272507,374.601257 212.877945,379.075165 206.652771,378.036499 
	C205.869720,377.905823 205.106110,377.658508 203.451111,377.244476 
	C203.451111,380.435394 203.272995,383.195099 203.498306,385.921509 
	C203.753067,389.004272 202.484299,390.153748 199.510712,390.117004 
	C196.652130,390.081665 195.244690,389.125397 195.384903,385.969269 
	C195.576309,381.661194 195.362350,377.335144 195.285400,372.597198 
M203.848114,368.814484 
	C205.330536,370.960693 207.203949,371.292755 209.293533,369.814514 
	C210.455307,368.992645 210.946747,367.731628 210.303177,366.362488 
	C209.558060,364.777283 208.230164,363.636963 206.452560,363.913330 
	C204.165695,364.268829 203.194382,365.869629 203.848114,368.814484 
z"/>
<path fill="#000000" opacity="1.000000" stroke="none" 
	d="
M181.716431,259.693665 
	C175.901184,257.797302 172.574982,254.164291 172.338303,248.374161 
	C172.146194,243.674759 173.608948,239.598236 178.113968,237.096497 
	C183.151672,234.298935 187.493347,234.471878 191.988892,237.907440 
	C195.755051,240.785645 197.409241,245.952164 196.129807,250.840881 
	C194.812012,255.876205 190.773529,259.423981 185.556427,259.993988 
	C184.424667,260.117615 183.253174,259.877533 181.716431,259.693665 
z"/>
<path fill="#000000" opacity="1.000000" stroke="none" 
	d="
M333.797302,299.318115 
	C326.604492,301.282257 321.109497,299.431732 318.289185,294.367554 
	C315.538025,289.427551 316.415405,282.997498 320.626160,279.340271 
	C324.017883,276.394440 327.787048,274.706360 332.494659,276.588531 
	C337.488373,278.585144 340.255219,282.058289 340.646606,287.397919 
	C341.035675,292.705719 339.130676,296.786407 333.797302,299.318115 
z"/>
<path fill="#000000" opacity="1.000000" stroke="none" 
	d="
M203.944870,175.557556 
	C197.124802,172.049927 194.372406,166.079941 196.412262,159.866516 
	C198.076691,154.796677 204.003754,151.332153 209.442276,152.250168 
	C215.971603,153.352310 220.298203,158.280243 220.182571,164.483185 
	C220.041489,172.052872 212.692719,177.255966 203.944870,175.557556 
z"/>
<path fill="#000000" opacity="1.000000" stroke="none" 
	d="
M302.494629,148.206940 
	C297.712799,155.243637 291.400330,156.830704 285.211884,152.845886 
	C280.003052,149.491852 278.155975,142.318405 281.131470,136.999100 
	C284.421265,131.117935 291.529724,128.943253 297.517639,131.986130 
	C303.097412,134.821594 304.896851,140.361115 302.494629,148.206940 
z"/>
<path fill="#000000" opacity="1.000000" stroke="none" 
	d="
M358.897522,194.824371 
	C364.013611,198.484665 365.423401,203.129990 363.760468,208.660736 
	C362.330139,213.417938 357.837921,217.037506 352.989227,217.012131 
	C348.021332,216.986160 343.954834,214.929581 341.653137,210.206207 
	C339.487152,205.761429 340.448547,199.730621 343.865204,196.287231 
	C347.724426,192.397842 352.282654,191.880447 358.897522,194.824371 
z"/>
<path fill="#000000" opacity="1.000000" stroke="none" 
	d="
M255.462738,303.882233 
	C258.501892,311.868866 255.811432,318.715240 249.102921,320.933716 
	C241.950470,323.299072 235.047531,319.553986 233.143005,312.274994 
	C231.810944,307.183868 234.579514,301.481323 239.599167,298.976959 
	C245.265167,296.150116 250.813782,297.773743 255.462738,303.882233 
z"/>
<path fill="#000000" opacity="1.000000" stroke="none" 
	d="
M245.342896,365.634827 
	C245.203415,368.162537 245.774017,369.894043 247.177322,371.565887 
	C248.551300,373.202759 248.625488,375.433044 247.389420,377.175476 
	C246.018768,379.107635 244.002167,378.195160 242.424805,377.341644 
	C240.102295,376.085052 238.079987,376.500610 235.804306,377.500427 
	C231.323090,379.469177 227.560989,377.801910 224.729782,374.289825 
	C221.478104,370.256195 221.324753,365.656250 223.842590,361.194061 
	C226.076843,357.234436 229.540527,355.220001 234.248047,355.964172 
	C235.392258,356.145050 236.507492,356.570618 237.654068,356.665192 
	C245.324554,357.298004 245.326141,357.278809 245.342896,365.634827 
M236.278244,369.876831 
	C237.876358,368.361450 238.024933,366.747620 236.440033,365.172729 
	C235.255844,363.996033 233.761124,363.829895 232.367645,364.695160 
	C231.051392,365.512543 230.051559,366.740143 230.815689,368.407196 
	C231.791931,370.537048 233.498749,371.162201 236.278244,369.876831 
z"/>
<path fill="#000000" opacity="1.000000" stroke="none" 
	d="
M386.492188,377.206757 
	C381.453827,379.463837 377.679138,377.871735 374.690643,374.182220 
	C371.735199,370.533569 371.516785,364.488708 374.182465,360.624542 
	C376.858429,356.745514 380.423096,355.013367 385.364685,356.176605 
	C388.372375,356.884613 391.580231,356.742310 394.716919,356.983368 
	C396.054626,359.628632 395.254547,362.324188 395.397888,364.921082 
	C395.525269,367.228149 395.330902,369.425415 397.171387,371.408295 
	C398.737885,373.095978 398.821655,375.581177 397.358856,377.388550 
	C395.937958,379.144196 393.926971,378.083679 392.347046,377.231903 
	C390.470032,376.219940 388.724701,375.564697 386.492188,377.206757 
M384.421265,370.649994 
	C386.715454,370.206268 387.910217,368.854858 387.548523,366.495270 
	C387.292450,364.824615 385.950684,363.905884 384.449585,363.754486 
	C382.613251,363.569275 381.268494,364.781799 380.794678,366.455872 
	C380.117523,368.848572 381.503357,370.113647 384.421265,370.649994 
z"/>
<path fill="#000000" opacity="1.000000" stroke="none" 
	d="
M259.444794,366.316528 
	C259.964752,370.793579 262.090057,371.665863 265.587067,369.595306 
	C266.012177,369.343658 266.348083,368.910583 266.793610,368.729248 
	C269.159027,367.766571 272.010956,366.868896 273.634979,369.153351 
	C275.213806,371.374268 273.122375,373.554382 271.474640,375.146851 
	C267.018494,379.453613 258.416687,379.339813 254.174118,375.060608 
	C250.057541,370.908447 249.987686,363.552826 254.023804,359.229370 
	C258.162140,354.796448 266.647919,354.496399 271.257019,358.770416 
	C273.056519,360.439056 275.438538,362.740265 273.549286,365.098419 
	C271.811829,367.267151 268.530579,366.946686 266.309662,365.203064 
	C263.557526,363.042389 261.420624,362.417786 259.444794,366.316528 
z"/>
<path fill="#000000" opacity="1.000000" stroke="none" 
	d="
M340.673157,363.815186 
	C341.248718,360.840027 339.013458,356.932068 344.146545,356.682434 
	C347.359894,356.526184 349.307281,357.410583 349.095215,361.065247 
	C348.970551,363.214325 349.174255,365.380798 349.093842,367.534393 
	C348.818298,374.912445 345.024048,378.489746 337.755554,378.306183 
	C330.919434,378.133545 327.914246,374.878296 327.767365,367.443695 
	C327.724762,365.287231 327.823944,363.126556 327.737274,360.972687 
	C327.624756,358.178131 328.533142,356.680298 331.676605,356.631531 
	C334.943573,356.580902 336.213043,357.939331 336.083313,361.062500 
	C336.007660,362.883667 336.058716,364.714691 336.146881,366.536713 
	C336.225433,368.160461 336.031494,370.268158 338.304932,370.367920 
	C340.613129,370.469208 340.585602,368.435089 340.655273,366.758514 
	C340.689697,365.930054 340.668304,365.099274 340.673157,363.815186 
z"/>
<path fill="#000000" opacity="1.000000" stroke="none" 
	d="
M289.227539,369.836884 
	C292.890717,371.060303 294.252899,373.400421 292.793365,376.497375 
	C291.403625,379.446228 288.590698,378.419434 286.228088,377.646179 
	C283.541595,376.766907 281.602478,374.954498 280.863464,372.191681 
	C279.867371,368.467987 280.467957,364.291260 277.160828,361.232178 
	C276.339844,360.472778 276.518768,358.173065 277.621857,357.584076 
	C280.096405,356.262695 280.496796,354.330292 280.570404,351.873932 
	C280.651947,349.152863 282.734802,348.891479 284.870300,348.952911 
	C286.987701,349.013794 288.386627,349.852051 288.317780,352.227356 
	C288.251160,354.526947 288.713715,355.976868 291.389587,357.041962 
	C294.370605,358.228546 294.126251,361.628967 291.543823,362.812988 
	C287.930328,364.469696 287.918579,366.579163 289.227539,369.836884 
z"/>
<path fill="#000000" opacity="1.000000" stroke="none" 
	d="
M142.558136,346.515625 
	C148.996826,345.875183 149.288025,346.103149 149.322708,351.979645 
	C149.362976,358.805054 149.258362,365.632233 149.374176,372.455963 
	C149.427246,375.581879 148.813828,377.497772 145.030228,377.420502 
	C141.626785,377.350983 140.781342,375.758545 140.815369,372.765839 
	C140.898697,365.441803 140.820236,358.115997 140.847992,350.791077 
	C140.853577,349.316772 140.740051,347.745483 142.558136,346.515625 
z"/>
<path fill="#000000" opacity="1.000000" stroke="none" 
	d="
M355.069336,358.444580 
	C359.094666,355.005859 363.894989,358.067139 368.057892,356.079681 
	C369.258942,355.506256 370.159698,357.405151 370.186798,358.832428 
	C370.217407,360.442688 370.642609,362.771759 368.519989,362.987061 
	C362.480499,363.599670 363.379944,367.889893 363.253296,371.845795 
	C363.179077,374.164551 364.034393,377.100281 360.056396,377.347290 
	C356.708099,377.555176 354.556183,376.838104 354.736420,372.840759 
	C354.945953,368.194519 354.880981,363.535889 355.069336,358.444580 
z"/>
</svg>